Coordinates
version=1
nRows=14
nColumns=24
inDegrees=yes

Units are S.I. units (second, meters, Newtons, ...)
If the header above contains a line with 'inDegrees', this indicates whether rotational values are in degrees (yes) or radians (no).

endheader
time	pelvis_tilt	pelvis_list	pelvis_rotation	pelvis_tx	pelvis_ty	pelvis_tz	hip_flexion_r	hip_adduction_r	hip_rotation_r	knee_angle_r	ankle_angle_r	subtalar_angle_r	mtp_angle_r	hip_flexion_l	hip_adduction_l	hip_rotation_l	knee_angle_l	ankle_angle_l	subtalar_angle_l	mtp_angle_l	lumbar_extension	lumbar_bending	lumbar_rotation
      1.95000000	     -3.39738105	     -9.85232238	     84.05946573	      0.22440386	      0.99356629	     -0.21951138	     24.61538075	     -3.01683667	      1.73835980	    -66.27014713	     -7.51337580	      0.00000000	      0.00000000	     25.74135720	      3.43784034	     -9.60753544	    -19.44534922	      6.07404109	      0.00000000	      0.00000000	     -3.13180474	     -5.45412833	      3.97017976
      1.96000000	     -3.35409775	     -9.82919686	     84.14763811	      0.22352756	      0.99532627	     -0.23190008	     26.19474825	     -2.98807372	      1.58184648	    -66.83567892	     -6.94478311	      0.00000000	      0.00000000	     24.61514639	      3.58105615	     -9.69585239	    -18.81251377	      6.27352094	      0.00000000	      0.00000000	     -3.16196664	     -5.36014321	      3.88953437
      1.97000000	     -3.22428101	     -9.76538549	     84.27529050	      0.22270769	      0.99706410	     -0.24424235	     27.61604894	     -2.87566699	      1.35658299	    -67.01941136	     -4.64045755	      0.00000000	      0.00000000	     23.40967962	      3.69946063	     -9.32501494	    -18.12397497	      6.86404447	      0.00000000	      0.00000000	     -3.26034349	     -5.02431401	      3.50928241
      1.98000000	     -3.07961089	     -9.71053745	     84.40345370	      0.22194097	      0.99871913	     -0.25651100	     28.97790936	     -2.73723238	      1.15189855	    -66.84875620	     -3.91843020	      0.00000000	      0.00000000	     22.23362199	      3.74126599	     -9.35524706	    -17.45292592	      7.04609234	      0.00000000	      0.00000000	     -3.31074656	     -4.85437787	      3.30288611
      1.99000000	     -2.89193734	     -9.67230339	     84.57715337	      0.22118124	      1.00024508	     -0.26870735	     30.25670170	     -2.56975299	      0.89640383	    -66.34245915	     -2.70484246	      0.00000000	      0.00000000	     21.07136035	      3.77937501	     -9.05154871	    -16.77193320	      7.29153554	      0.00000000	      0.00000000	     -3.40513134	     -4.55248735	      2.99664755
      2.00000000	     -2.69129400	     -9.62268643	     84.76043465	      0.22047785	      1.00165519	     -0.28086846	     31.41702966	     -2.37260128	      0.66756140	    -65.50028130	     -1.64920763	      0.00000000	      0.00000000	     19.92725142	      3.76363514	     -8.93849731	    -16.14271391	      7.51700150	      0.00000000	      0.00000000	     -3.57599423	     -4.14441288	      0.32799808
      2.01000000	     -2.46520736	     -9.57581806	     84.98005742	      0.21981004	      1.00292801	     -0.29297585	     32.47907861	     -2.17061713	      0.39994576	    -64.33796343	     -1.34391172	      0.00000000	      0.00000000	     18.78461205	      3.70562521	     -8.90835953	    -15.49891835	      7.60610027	      0.00000000	      0.00000000	     -3.58280600	     -4.08184999	      0.30622583
      2.02000000	     -2.29265144	     -9.50833829	     85.23602343	      0.21908798	      1.00405375	     -0.30508895	     33.40674823	     -2.05872561	      0.10813400	    -62.87899703	     -0.18597026	      0.00000000	      0.00000000	     17.57951309	      3.78125927	     -8.28223440	    -14.76607103	      7.82142173	      0.00000000	      0.00000000	     -3.69915480	     -3.73034381	      0.19798537
      2.03000000	     -2.19617137	     -9.55957029	     85.49789496	      0.21836493	      1.00479897	     -0.31703281	     34.39098480	     -2.00792896	     -0.11923851	    -61.15570328	     -0.07783662	      0.00000000	      0.00000000	     16.74653561	      3.80696223	     -8.38389792	    -14.50313032	      7.86859464	      0.00000000	      0.00000000	     -3.71336713	     -3.71484132	      0.18764310
      2.04000000	     -1.92747978	     -9.31801863	     85.79267016	      0.21781441	      1.00580970	     -0.32931023	     34.88147903	     -1.83863780	     -0.48611219	    -59.11902268	      0.61382694	      0.00000000	      0.00000000	     15.22128757	      3.75113248	     -7.90991168	    -13.50652304	      8.04807504	      0.00000000	      0.00000000	     -3.77498444	     -3.49726618	      0.11712674
      2.05000000	     -1.79267975	     -9.26001219	     86.17653498	      0.21706446	      1.00635005	     -0.34139735	     35.48376610	     -1.85530599	     -0.87556432	    -56.84203804	      1.73109482	      0.00000000	      0.00000000	     14.01880776	      3.85239836	     -7.06884352	    -12.73331705	      8.29229081	      0.00000000	      0.00000000	     -4.00837282	     -3.09782609	     -0.07924862
      2.06000000	     -1.67201265	     -9.16792031	     86.54255409	      0.21642734	      1.00670535	     -0.35349804	     35.94554546	     -1.87306616	     -1.24015563	    -54.31267823	      2.31102805	      0.00000000	      0.00000000	     12.83017456	      3.89688676	     -6.66279042	    -12.07202327	      8.46486578	      0.00000000	      0.00000000	     -4.17346867	     -2.89282595	     -0.31522597
      2.07000000	     -1.56698811	     -9.06296870	     86.94075223	      0.21579200	      1.00687638	     -0.36564580	     36.27820225	     -1.94071601	     -1.65166714	    -51.54122482	      2.73377863	      0.00000000	      0.00000000	     11.63548358	      3.94282883	     -6.22878409	    -11.42393807	      8.62213344	      0.00000000	      0.00000000	     -4.32425208	     -2.75489397	     -0.58752580
      2.08000000	     -1.49664433	     -8.94874166	     87.35695009	      0.21516982	      1.00683475	     -0.37782653	     36.49392709	     -2.05663556	     -2.08042783	    -48.54629055	      3.03013930	      0.00000000	      0.00000000	     10.42859708	      4.00981610	     -5.78488722	    -10.77392780	      8.77414032	      0.00000000	      0.00000000	     -4.46412373	     -2.66261783	     -0.84609396
